<svg xmlns="http://www.w3.org/2000/svg" viewBox="0 0 32 32" width="20" height="20" fill="none">
  <path fill="#25D366" d="M16 0C7.163 0 0 7.163 0 16c0 2.828.736 5.482 2.018 7.79L0 32l8.467-2.047A15.956 15.956 0 0016 32c8.837 0 16-7.163 16-16S24.837 0 16 0z"/>
  <path fill="#FFF" d="M25.603 20.4c-.323-.16-1.91-.939-2.205-1.04-.296-.1-.511-.16-.727.16-.216.32-.835 1.04-1.024 1.25-.192.215-.384.24-.707.08-.323-.16-1.37-.504-2.61-1.606-1.108-.988-1.854-2.207-2.073-2.53-.216-.32-.023-.492.16-.653.166-.16.374-.419.56-.628.186-.216.248-.384.372-.64.124-.256.062-.48-.032-.64-.08-.16-.707-1.708-.97-2.35-.256-.614-.515-.53-.707-.53h-.605c-.192 0-.5.08-.764.38-.256.32-.996.973-.996 2.37 0 1.394 1.02 2.735 1.16 2.92.144.185 2.007 3.064 4.87 4.3.68.295 1.21.472 1.623.605.68.215 1.298.185 1.785.112.544-.08 1.91-.776 2.18-1.528.27-.755.27-1.4.186-1.537-.088-.134-.296-.215-.62-.38z"/>
</svg>
